<?xml version="1.0" encoding="UTF-8" standalone="no"?>
<svg
   width="600"
   height="400"
   viewBox="0 0 600 400"
   fill="none"
   version="1.1"
   id="svg7"
   sodipodi:docname="BlendModeTest.svg"
   inkscape:export-filename="BlendModeTest.png"
   inkscape:export-xdpi="96"
   inkscape:export-ydpi="96"
   inkscape:version="1.4.3 (0d15f75, 2025-12-25)"
   xmlns:inkscape="http://www.inkscape.org/namespaces/inkscape"
   xmlns:sodipodi="http://sodipodi.sourceforge.net/DTD/sodipodi-0.dtd"
   xmlns="http://www.w3.org/2000/svg"
   xmlns:svg="http://www.w3.org/2000/svg">
  <sodipodi:namedview
     id="namedview7"
     pagecolor="#ffffff"
     bordercolor="#000000"
     borderopacity="0.25"
     inkscape:showpageshadow="2"
     inkscape:pageopacity="0.0"
     inkscape:pagecheckerboard="0"
     inkscape:deskcolor="#d1d1d1"
     inkscape:zoom="1.4666667"
     inkscape:cx="299.65909"
     inkscape:cy="199.77273"
     inkscape:window-width="1920"
     inkscape:window-height="1021"
     inkscape:window-x="0"
     inkscape:window-y="31"
     inkscape:window-maximized="1"
     inkscape:current-layer="svg7" />
  <rect
     width="600"
     height="400"
     fill="url(#paint0_linear_2011_8)"
     id="rect1" />
  <path
     d="M191.75 137.648C199.347 139.748 206.014 142.847 211.751 146.945C217.489 151.043 222.145 156.004 225.72 161.827C229.307 167.605 231.668 174.16 232.803 181.489C233.939 188.818 233.656 196.774 231.958 205.358L198.831 196.201C199.448 193.054 199.595 190.084 199.27 187.293C198.985 184.512 198.211 181.976 196.948 179.683C195.737 177.357 194.031 175.368 191.832 173.718C189.645 172.023 186.985 170.742 183.852 169.877C178.371 168.361 173.316 168.576 168.691 170.52C164.104 172.475 160.058 175.979 156.554 181.03C153.09 186.092 150.275 192.542 148.108 200.38C145.819 208.659 144.881 215.865 145.293 221.999C145.756 228.099 147.478 233.078 150.458 236.935C153.45 240.749 157.59 243.386 162.876 244.847C165.891 245.681 168.708 246.009 171.328 245.833C173.96 245.613 176.383 244.931 178.595 243.789C180.807 242.647 182.778 241.083 184.508 239.096C186.288 237.076 187.777 234.667 188.971 231.869L222.025 241.291C220.051 246.907 217.009 252.347 212.899 257.609C208.801 262.828 203.787 267.319 197.857 271.084C191.979 274.815 185.291 277.28 177.794 278.478C170.298 279.676 162.144 279.058 153.333 276.622C142.291 273.57 133.12 268.167 125.821 260.414C118.562 252.672 113.818 242.923 111.588 231.168C109.398 219.424 110.372 206.065 114.51 191.093C118.673 176.033 124.763 164.066 132.781 155.19C140.81 146.271 149.941 140.381 160.173 137.522C170.417 134.618 180.943 134.66 191.75 137.648ZM118.86 151.342L82.6782 141.34L53.4639 247.024L21.2765 238.127L50.4908 132.443L14.3087 122.441L22.4887 92.8496L127.04 121.751L118.86 151.342ZM312.72 173.079C321.648 175.547 328.913 179.688 334.513 185.502C340.114 191.316 343.782 198.326 345.518 206.532C347.253 214.738 346.795 223.641 344.141 233.24C341.463 242.928 337.226 250.787 331.428 256.816C325.67 262.855 318.816 266.838 310.865 268.764C302.953 270.701 294.415 270.402 285.253 267.869L267.162 262.869L256.061 303.029L223.403 294.001L260.797 158.726L312.72 173.079ZM415.157 201.395C427.531 204.816 437.473 210.479 444.982 218.385C452.542 226.257 457.369 235.935 459.464 247.416C461.611 258.864 460.737 271.633 456.842 285.724C452.946 299.815 447.151 311.248 439.456 320.023C431.774 328.754 422.701 334.589 412.237 337.526C401.785 340.42 390.45 340.178 378.233 336.801L331.948 324.006L369.343 188.731L415.157 201.395ZM567.049 275.236L515.126 260.882L508.699 284.133L555.453 297.057L547.273 326.648L500.519 313.724L485.911 366.566L453.253 357.539L490.648 222.263L575.229 245.644L567.049 275.236ZM373.224 301.857L385.676 305.299C391.628 306.945 396.998 307.267 401.784 306.268C406.609 305.279 410.849 302.446 414.502 297.768C418.195 293.101 421.343 286.055 423.948 276.631C426.553 267.208 427.451 259.54 426.64 253.628C425.869 247.727 423.608 243.097 419.859 239.738C416.148 236.39 411.159 233.849 404.894 232.117L393.382 228.935L373.224 301.857ZM275.05 234.334L286.562 237.516C290.399 238.577 293.877 238.733 296.993 237.982C300.16 237.199 302.857 235.597 305.085 233.18C307.352 230.773 309.015 227.654 310.074 223.823C311.145 219.948 311.314 216.44 310.581 213.298C309.899 210.124 308.388 207.431 306.049 205.22C303.761 202.976 300.698 201.323 296.86 200.262L285.348 197.08L275.05 234.334Z"
     fill="#EB590C"
     id="path1" />
  <rect
     x="29"
     y="79"
     width="90"
     height="281"
     fill="#2563EB"
     style="mix-blend-mode:darken"
     id="rect2" />
  <path
     d="M53.1548 67H49.7969V58.2727H53.1207C54.0185 58.2727 54.794 58.4474 55.4474 58.7969C56.1037 59.1435 56.6094 59.6435 56.9645 60.2969C57.3224 60.9474 57.5014 61.7273 57.5014 62.6364C57.5014 63.5455 57.3239 64.3267 56.9688 64.9801C56.6136 65.6307 56.1108 66.1307 55.4602 66.4801C54.8097 66.8267 54.0412 67 53.1548 67ZM52.1662 64.9886H53.0696C53.5014 64.9886 53.8693 64.919 54.1733 64.7798C54.4801 64.6406 54.7131 64.4006 54.8722 64.0597C55.0341 63.7187 55.1151 63.2443 55.1151 62.6364C55.1151 62.0284 55.0327 61.554 54.8679 61.2131C54.706 60.8722 54.4673 60.6321 54.152 60.4929C53.8395 60.3537 53.456 60.2841 53.0014 60.2841H52.1662V64.9886ZM60.3139 67H57.7571L60.6378 58.2727H63.8764L66.7571 67H64.2003L62.2912 60.6761H62.223L60.3139 67ZM59.8366 63.5568H64.6435V65.3295H59.8366V63.5568ZM67.5977 67V58.2727H71.3647C72.0124 58.2727 72.5792 58.3906 73.065 58.6264C73.5508 58.8622 73.9286 59.2017 74.1985 59.6449C74.4684 60.0881 74.6033 60.6193 74.6033 61.2386C74.6033 61.8636 74.4641 62.3906 74.1857 62.8196C73.9102 63.2486 73.5224 63.5724 73.0224 63.7912C72.5252 64.0099 71.9442 64.1193 71.2795 64.1193H69.0295V62.2784H70.8022C71.0806 62.2784 71.3178 62.2443 71.5138 62.1761C71.7127 62.1051 71.8647 61.9929 71.9698 61.8395C72.0778 61.6861 72.1317 61.4858 72.1317 61.2386C72.1317 60.9886 72.0778 60.7855 71.9698 60.6293C71.8647 60.4702 71.7127 60.3537 71.5138 60.2798C71.3178 60.2031 71.0806 60.1648 70.8022 60.1648H69.967V67H67.5977ZM72.7113 62.9943L74.8931 67H72.3192L70.1886 62.9943H72.7113ZM75.6133 67V58.2727H77.9826V61.8011H78.1019L80.7269 58.2727H83.4883L80.5394 62.1591L83.5565 67H80.7269L78.7667 63.7273L77.9826 64.75V67H75.6133ZM84.1914 67V58.2727H90.4812V60.1818H86.5607V61.6818H90.1573V63.5909H86.5607V65.0909H90.4641V67H84.1914ZM99.2074 58.2727V67H97.2301L94.0767 62.4148H94.0256V67H91.6562V58.2727H93.6676L96.7699 62.8409H96.8381V58.2727H99.2074Z"
     fill="black"
     id="path2" />
  <rect
     x="138"
     y="79"
     width="90"
     height="281"
     fill="#2563EB"
     style="mix-blend-mode:multiply"
     id="rect3" />
  <path
     d="M153.709 58.2727H156.658L158.686 63.2159H158.789L160.817 58.2727H163.766V67H161.448V61.9545H161.379L159.436 66.9318H158.039L156.095 61.9205H156.027V67H153.709V58.2727ZM170.053 58.2727H172.423V63.8636C172.423 64.5284 172.264 65.1037 171.945 65.5895C171.63 66.0724 171.19 66.446 170.624 66.7102C170.059 66.9716 169.403 67.1023 168.656 67.1023C167.903 67.1023 167.244 66.9716 166.678 66.7102C166.113 66.446 165.673 66.0724 165.357 65.5895C165.045 65.1037 164.889 64.5284 164.889 63.8636V58.2727H167.258V63.6591C167.258 63.929 167.318 64.1705 167.437 64.3835C167.556 64.5937 167.721 64.7585 167.931 64.8778C168.144 64.9972 168.386 65.0568 168.656 65.0568C168.928 65.0568 169.17 64.9972 169.38 64.8778C169.59 64.7585 169.755 64.5937 169.874 64.3835C169.994 64.1705 170.053 63.929 170.053 63.6591V58.2727ZM173.549 67V58.2727H175.918V65.0909H179.447V67H173.549ZM179.123 60.1818V58.2727H186.708V60.1818H184.083V67H181.748V60.1818H179.123ZM189.969 58.2727V67H187.6V58.2727H189.969ZM191.092 67V58.2727H194.859C195.507 58.2727 196.073 58.4006 196.559 58.6562C197.045 58.9119 197.423 59.2713 197.693 59.7344C197.963 60.1974 198.097 60.7386 198.097 61.358C198.097 61.983 197.958 62.5241 197.68 62.9815C197.404 63.4389 197.017 63.7912 196.517 64.0384C196.019 64.2855 195.438 64.4091 194.774 64.4091H192.524V62.5682H194.296C194.575 62.5682 194.812 62.5199 195.008 62.4233C195.207 62.3239 195.359 62.1832 195.464 62.0014C195.572 61.8196 195.626 61.6051 195.626 61.358C195.626 61.108 195.572 60.8949 195.464 60.7188C195.359 60.5398 195.207 60.4034 195.008 60.3097C194.812 60.2131 194.575 60.1648 194.296 60.1648H193.461V67H191.092ZM198.967 67V58.2727H201.336V65.0909H204.865V67H198.967ZM203.882 58.2727H206.524L208.229 61.8182H208.297L210.002 58.2727H212.644L209.439 64.2557V67H207.087V64.2557L203.882 58.2727Z"
     fill="black"
     id="path3" />
  <rect
     x="247"
     y="79"
     width="90"
     height="281"
     fill="#2563EB"
     style="mix-blend-mode:color-burn"
     id="rect4" />
  <path
     d="M263.101 61.5455H260.697C260.68 61.3466 260.635 61.1662 260.561 61.0043C260.49 60.8423 260.391 60.7031 260.263 60.5866C260.138 60.4673 259.986 60.3764 259.807 60.3139C259.628 60.2486 259.425 60.2159 259.197 60.2159C258.8 60.2159 258.463 60.3125 258.188 60.5057C257.915 60.6989 257.707 60.9759 257.565 61.3366C257.426 61.6974 257.357 62.1307 257.357 62.6364C257.357 63.1705 257.428 63.6179 257.57 63.9787C257.714 64.3366 257.923 64.6065 258.196 64.7884C258.469 64.9673 258.797 65.0568 259.18 65.0568C259.399 65.0568 259.595 65.0298 259.768 64.9759C259.942 64.919 260.092 64.8381 260.22 64.733C260.348 64.6278 260.452 64.5014 260.531 64.3537C260.614 64.2031 260.669 64.0341 260.697 63.8466L263.101 63.8636C263.072 64.233 262.969 64.6094 262.79 64.9929C262.611 65.3736 262.357 65.7259 262.027 66.0497C261.7 66.3707 261.295 66.6293 260.812 66.8253C260.33 67.0213 259.768 67.1193 259.129 67.1193C258.328 67.1193 257.609 66.9474 256.973 66.6037C256.339 66.2599 255.838 65.7543 255.469 65.0866C255.102 64.419 254.919 63.6023 254.919 62.6364C254.919 61.6648 255.107 60.8466 255.482 60.1818C255.857 59.5142 256.362 59.0099 256.999 58.669C257.635 58.3253 258.345 58.1534 259.129 58.1534C259.68 58.1534 260.188 58.2287 260.651 58.3793C261.114 58.5298 261.52 58.75 261.869 59.0398C262.219 59.3267 262.5 59.6804 262.713 60.1009C262.926 60.5213 263.055 61.0028 263.101 61.5455ZM272.63 62.6364C272.63 63.608 272.441 64.4276 272.064 65.0952C271.686 65.7599 271.176 66.2642 270.534 66.608C269.892 66.9489 269.176 67.1193 268.386 67.1193C267.591 67.1193 266.872 66.9474 266.23 66.6037C265.591 66.2571 265.082 65.7514 264.704 65.0866C264.329 64.419 264.142 63.6023 264.142 62.6364C264.142 61.6648 264.329 60.8466 264.704 60.1818C265.082 59.5142 265.591 59.0099 266.23 58.669C266.872 58.3253 267.591 58.1534 268.386 58.1534C269.176 58.1534 269.892 58.3253 270.534 58.669C271.176 59.0099 271.686 59.5142 272.064 60.1818C272.441 60.8466 272.63 61.6648 272.63 62.6364ZM270.193 62.6364C270.193 62.1136 270.123 61.6733 269.984 61.3153C269.848 60.9545 269.645 60.6818 269.375 60.4972C269.108 60.3097 268.778 60.2159 268.386 60.2159C267.994 60.2159 267.663 60.3097 267.393 60.4972C267.126 60.6818 266.923 60.9545 266.784 61.3153C266.647 61.6733 266.579 62.1136 266.579 62.6364C266.579 63.1591 266.647 63.6009 266.784 63.9616C266.923 64.3196 267.126 64.5923 267.393 64.7798C267.663 64.9645 267.994 65.0568 268.386 65.0568C268.778 65.0568 269.108 64.9645 269.375 64.7798C269.645 64.5923 269.848 64.3196 269.984 63.9616C270.123 63.6009 270.193 63.1591 270.193 62.6364ZM273.727 67V58.2727H276.096V65.0909H279.624V67H273.727ZM288.697 62.6364C288.697 63.608 288.508 64.4276 288.13 65.0952C287.752 65.7599 287.242 66.2642 286.6 66.608C285.958 66.9489 285.242 67.1193 284.452 67.1193C283.657 67.1193 282.938 66.9474 282.296 66.6037C281.657 66.2571 281.148 65.7514 280.771 65.0866C280.396 64.419 280.208 63.6023 280.208 62.6364C280.208 61.6648 280.396 60.8466 280.771 60.1818C281.148 59.5142 281.657 59.0099 282.296 58.669C282.938 58.3253 283.657 58.1534 284.452 58.1534C285.242 58.1534 285.958 58.3253 286.6 58.669C287.242 59.0099 287.752 59.5142 288.13 60.1818C288.508 60.8466 288.697 61.6648 288.697 62.6364ZM286.259 62.6364C286.259 62.1136 286.19 61.6733 286.05 61.3153C285.914 60.9545 285.711 60.6818 285.441 60.4972C285.174 60.3097 284.844 60.2159 284.452 60.2159C284.06 60.2159 283.729 60.3097 283.46 60.4972C283.192 60.6818 282.989 60.9545 282.85 61.3153C282.714 61.6733 282.646 62.1136 282.646 62.6364C282.646 63.1591 282.714 63.6009 282.85 63.9616C282.989 64.3196 283.192 64.5923 283.46 64.7798C283.729 64.9645 284.06 65.0568 284.452 65.0568C284.844 65.0568 285.174 64.9645 285.441 64.7798C285.711 64.5923 285.914 64.3196 286.05 63.9616C286.19 63.6009 286.259 63.1591 286.259 62.6364ZM289.793 67V58.2727H293.56C294.208 58.2727 294.775 58.3906 295.26 58.6264C295.746 58.8622 296.124 59.2017 296.394 59.6449C296.664 60.0881 296.799 60.6193 296.799 61.2386C296.799 61.8636 296.659 62.3906 296.381 62.8196C296.105 63.2486 295.718 63.5724 295.218 63.7912C294.721 64.0099 294.14 64.1193 293.475 64.1193H291.225V62.2784H292.998C293.276 62.2784 293.513 62.2443 293.709 62.1761C293.908 62.1051 294.06 61.9929 294.165 61.8395C294.273 61.6861 294.327 61.4858 294.327 61.2386C294.327 60.9886 294.273 60.7855 294.165 60.6293C294.06 60.4702 293.908 60.3537 293.709 60.2798C293.513 60.2031 293.276 60.1648 292.998 60.1648H292.162V67H289.793ZM294.907 62.9943L297.088 67H294.515L292.384 62.9943H294.907ZM297.809 67V58.2727H301.593C302.257 58.2727 302.816 58.3622 303.267 58.5412C303.722 58.7202 304.064 58.973 304.294 59.2997C304.527 59.6264 304.644 60.0114 304.644 60.4545C304.644 60.7756 304.573 61.0682 304.431 61.3324C304.292 61.5966 304.096 61.8182 303.843 61.9972C303.59 62.1733 303.294 62.2955 302.956 62.3636V62.4489C303.331 62.4631 303.672 62.5582 303.979 62.7344C304.286 62.9077 304.53 63.1477 304.712 63.4545C304.894 63.7585 304.985 64.1165 304.985 64.5284C304.985 65.0057 304.86 65.4304 304.61 65.8026C304.363 66.1747 304.01 66.4673 303.553 66.6804C303.096 66.8935 302.55 67 301.917 67H297.809ZM300.178 65.108H301.286C301.684 65.108 301.982 65.0341 302.181 64.8864C302.38 64.7358 302.479 64.5142 302.479 64.2216C302.479 64.017 302.432 63.8437 302.338 63.7017C302.245 63.5597 302.111 63.4517 301.938 63.3778C301.767 63.304 301.561 63.267 301.32 63.267H300.178V65.108ZM300.178 61.8011H301.15C301.357 61.8011 301.54 61.7685 301.699 61.7031C301.858 61.6378 301.982 61.544 302.07 61.4219C302.161 61.2969 302.206 61.1449 302.206 60.9659C302.206 60.696 302.11 60.4901 301.917 60.348C301.723 60.2031 301.479 60.1307 301.184 60.1307H300.178V61.8011ZM310.989 58.2727H313.358V63.8636C313.358 64.5284 313.199 65.1037 312.881 65.5895C312.566 66.0724 312.125 66.446 311.56 66.7102C310.995 66.9716 310.338 67.1023 309.591 67.1023C308.838 67.1023 308.179 66.9716 307.614 66.7102C307.049 66.446 306.608 66.0724 306.293 65.5895C305.98 65.1037 305.824 64.5284 305.824 63.8636V58.2727H308.194V63.6591C308.194 63.929 308.253 64.1705 308.373 64.3835C308.492 64.5937 308.657 64.7585 308.867 64.8778C309.08 64.9972 309.321 65.0568 309.591 65.0568C309.864 65.0568 310.105 64.9972 310.316 64.8778C310.526 64.7585 310.691 64.5937 310.81 64.3835C310.929 64.1705 310.989 63.929 310.989 63.6591V58.2727ZM314.484 67V58.2727H318.251C318.899 58.2727 319.466 58.3906 319.952 58.6264C320.438 58.8622 320.815 59.2017 321.085 59.6449C321.355 60.0881 321.49 60.6193 321.49 61.2386C321.49 61.8636 321.351 62.3906 321.072 62.8196C320.797 63.2486 320.409 63.5724 319.909 63.7912C319.412 64.0099 318.831 64.1193 318.166 64.1193H315.916V62.2784H317.689C317.967 62.2784 318.205 62.2443 318.401 62.1761C318.599 62.1051 318.751 61.9929 318.857 61.8395C318.964 61.6861 319.018 61.4858 319.018 61.2386C319.018 60.9886 318.964 60.7855 318.857 60.6293C318.751 60.4702 318.599 60.3537 318.401 60.2798C318.205 60.2031 317.967 60.1648 317.689 60.1648H316.854V67H314.484ZM319.598 62.9943L321.78 67H319.206L317.075 62.9943H319.598ZM330.051 58.2727V67H328.074L324.92 62.4148H324.869V67H322.5V58.2727H324.511L327.614 62.8409H327.682V58.2727H330.051Z"
     fill="black"
     id="path4" />
  <rect
     x="356"
     y="79"
     width="90"
     height="281"
     fill="#2563EB"
     style="mix-blend-mode:lighten"
     id="rect5" />
  <path
     d="M375.566 67V58.2727H377.936V65.0909H381.464V67H375.566ZM384.791 58.2727V67H382.422V58.2727H384.791ZM391.582 61.1534C391.545 61.0028 391.487 60.8707 391.407 60.7571C391.327 60.6406 391.228 60.5426 391.109 60.4631C390.992 60.3807 390.856 60.3196 390.7 60.2798C390.546 60.2372 390.377 60.2159 390.192 60.2159C389.795 60.2159 389.455 60.3111 389.174 60.5014C388.896 60.6918 388.683 60.9659 388.535 61.3239C388.39 61.6818 388.317 62.1136 388.317 62.6193C388.317 63.1307 388.387 63.5682 388.526 63.9318C388.665 64.2955 388.873 64.5739 389.148 64.767C389.424 64.9602 389.766 65.0568 390.175 65.0568C390.536 65.0568 390.836 65.0043 391.075 64.8991C391.316 64.794 391.496 64.6449 391.616 64.4517C391.735 64.2585 391.795 64.0312 391.795 63.7699L392.204 63.8125H390.21V62.125H394.079V63.3352C394.079 64.1307 393.91 64.8111 393.572 65.3764C393.237 65.9389 392.773 66.3707 392.183 66.6719C391.594 66.9702 390.92 67.1193 390.158 67.1193C389.309 67.1193 388.563 66.9389 387.921 66.5781C387.279 66.2173 386.778 65.7031 386.417 65.0355C386.059 64.3679 385.88 63.5739 385.88 62.6534C385.88 61.9318 385.989 61.2926 386.208 60.7358C386.43 60.179 386.737 59.7088 387.129 59.3253C387.521 58.9389 387.974 58.6477 388.488 58.4517C389.002 58.2528 389.553 58.1534 390.141 58.1534C390.658 58.1534 391.138 58.2273 391.582 58.375C392.028 58.5199 392.421 58.7273 392.762 58.9972C393.106 59.2642 393.383 59.581 393.593 59.9474C393.803 60.3139 393.931 60.7159 393.977 61.1534H391.582ZM395.184 67V58.2727H397.553V61.6818H400.689V58.2727H403.059V67H400.689V63.5909H397.553V67H395.184ZM403.945 60.1818V58.2727H411.53V60.1818H408.905V67H406.57V60.1818H403.945ZM412.422 67V58.2727H418.712V60.1818H414.791V61.6818H418.388V63.5909H414.791V65.0909H418.695V67H412.422ZM427.438 58.2727V67H425.461L422.307 62.4148H422.256V67H419.887V58.2727H421.898L425 62.8409H425.069V58.2727H427.438Z"
     fill="black"
     id="path5" />
  <rect
     x="465"
     y="79"
     width="90"
     height="281"
     fill="#2563EB"
     style="mix-blend-mode:color-dodge"
     id="rect6" />
  <path
     d="M475.839 61.5455H473.436C473.419 61.3466 473.373 61.1662 473.299 61.0043C473.228 60.8423 473.129 60.7031 473.001 60.5866C472.876 60.4673 472.724 60.3764 472.545 60.3139C472.366 60.2486 472.163 60.2159 471.936 60.2159C471.538 60.2159 471.201 60.3125 470.926 60.5057C470.653 60.6989 470.446 60.9759 470.304 61.3366C470.164 61.6974 470.095 62.1307 470.095 62.6364C470.095 63.1705 470.166 63.6179 470.308 63.9787C470.453 64.3366 470.662 64.6065 470.934 64.7884C471.207 64.9673 471.535 65.0568 471.919 65.0568C472.137 65.0568 472.333 65.0298 472.507 64.9759C472.68 64.919 472.831 64.8381 472.958 64.733C473.086 64.6278 473.19 64.5014 473.27 64.3537C473.352 64.2031 473.407 64.0341 473.436 63.8466L475.839 63.8636C475.811 64.233 475.707 64.6094 475.528 64.9929C475.349 65.3736 475.095 65.7259 474.765 66.0497C474.439 66.3707 474.034 66.6293 473.551 66.8253C473.068 67.0213 472.507 67.1193 471.868 67.1193C471.066 67.1193 470.348 66.9474 469.711 66.6037C469.078 66.2599 468.576 65.7543 468.207 65.0866C467.841 64.419 467.657 63.6023 467.657 62.6364C467.657 61.6648 467.845 60.8466 468.22 60.1818C468.595 59.5142 469.1 59.0099 469.737 58.669C470.373 58.3253 471.083 58.1534 471.868 58.1534C472.419 58.1534 472.926 58.2287 473.389 58.3793C473.852 58.5298 474.258 58.75 474.608 59.0398C474.957 59.3267 475.238 59.6804 475.451 60.1009C475.664 60.5213 475.794 61.0028 475.839 61.5455ZM485.369 62.6364C485.369 63.608 485.18 64.4276 484.802 65.0952C484.424 65.7599 483.914 66.2642 483.272 66.608C482.63 66.9489 481.914 67.1193 481.124 67.1193C480.329 67.1193 479.61 66.9474 478.968 66.6037C478.329 66.2571 477.82 65.7514 477.442 65.0866C477.067 64.419 476.88 63.6023 476.88 62.6364C476.88 61.6648 477.067 60.8466 477.442 60.1818C477.82 59.5142 478.329 59.0099 478.968 58.669C479.61 58.3253 480.329 58.1534 481.124 58.1534C481.914 58.1534 482.63 58.3253 483.272 58.669C483.914 59.0099 484.424 59.5142 484.802 60.1818C485.18 60.8466 485.369 61.6648 485.369 62.6364ZM482.931 62.6364C482.931 62.1136 482.862 61.6733 482.722 61.3153C482.586 60.9545 482.383 60.6818 482.113 60.4972C481.846 60.3097 481.516 60.2159 481.124 60.2159C480.732 60.2159 480.401 60.3097 480.131 60.4972C479.864 60.6818 479.661 60.9545 479.522 61.3153C479.386 61.6733 479.317 62.1136 479.317 62.6364C479.317 63.1591 479.386 63.6009 479.522 63.9616C479.661 64.3196 479.864 64.5923 480.131 64.7798C480.401 64.9645 480.732 65.0568 481.124 65.0568C481.516 65.0568 481.846 64.9645 482.113 64.7798C482.383 64.5923 482.586 64.3196 482.722 63.9616C482.862 63.6009 482.931 63.1591 482.931 62.6364ZM486.465 67V58.2727H488.834V65.0909H492.363V67H486.465ZM501.435 62.6364C501.435 63.608 501.246 64.4276 500.868 65.0952C500.49 65.7599 499.98 66.2642 499.338 66.608C498.696 66.9489 497.98 67.1193 497.191 67.1193C496.395 67.1193 495.676 66.9474 495.034 66.6037C494.395 66.2571 493.887 65.7514 493.509 65.0866C493.134 64.419 492.946 63.6023 492.946 62.6364C492.946 61.6648 493.134 60.8466 493.509 60.1818C493.887 59.5142 494.395 59.0099 495.034 58.669C495.676 58.3253 496.395 58.1534 497.191 58.1534C497.98 58.1534 498.696 58.3253 499.338 58.669C499.98 59.0099 500.49 59.5142 500.868 60.1818C501.246 60.8466 501.435 61.6648 501.435 62.6364ZM498.998 62.6364C498.998 62.1136 498.928 61.6733 498.789 61.3153C498.652 60.9545 498.449 60.6818 498.179 60.4972C497.912 60.3097 497.583 60.2159 497.191 60.2159C496.799 60.2159 496.468 60.3097 496.198 60.4972C495.931 60.6818 495.728 60.9545 495.588 61.3153C495.452 61.6733 495.384 62.1136 495.384 62.6364C495.384 63.1591 495.452 63.6009 495.588 63.9616C495.728 64.3196 495.931 64.5923 496.198 64.7798C496.468 64.9645 496.799 65.0568 497.191 65.0568C497.583 65.0568 497.912 64.9645 498.179 64.7798C498.449 64.5923 498.652 64.3196 498.789 63.9616C498.928 63.6009 498.998 63.1591 498.998 62.6364ZM502.531 67V58.2727H506.298C506.946 58.2727 507.513 58.3906 507.999 58.6264C508.484 58.8622 508.862 59.2017 509.132 59.6449C509.402 60.0881 509.537 60.6193 509.537 61.2386C509.537 61.8636 509.398 62.3906 509.119 62.8196C508.844 63.2486 508.456 63.5724 507.956 63.7912C507.459 64.0099 506.878 64.1193 506.213 64.1193H503.963V62.2784H505.736C506.014 62.2784 506.251 62.2443 506.447 62.1761C506.646 62.1051 506.798 61.9929 506.903 61.8395C507.011 61.6861 507.065 61.4858 507.065 61.2386C507.065 60.9886 507.011 60.7855 506.903 60.6293C506.798 60.4702 506.646 60.3537 506.447 60.2798C506.251 60.2031 506.014 60.1648 505.736 60.1648H504.901V67H502.531ZM507.645 62.9943L509.827 67H507.253L505.122 62.9943H507.645ZM513.905 67H510.547V58.2727H513.871C514.768 58.2727 515.544 58.4474 516.197 58.7969C516.854 59.1435 517.359 59.6435 517.714 60.2969C518.072 60.9474 518.251 61.7273 518.251 62.6364C518.251 63.5455 518.074 64.3267 517.719 64.9801C517.364 65.6307 516.861 66.1307 516.21 66.4801C515.56 66.8267 514.791 67 513.905 67ZM512.916 64.9886H513.82C514.251 64.9886 514.619 64.919 514.923 64.7798C515.23 64.6406 515.463 64.4006 515.622 64.0597C515.784 63.7187 515.865 63.2443 515.865 62.6364C515.865 62.0284 515.783 61.554 515.618 61.2131C515.456 60.8722 515.217 60.6321 514.902 60.4929C514.589 60.3537 514.206 60.2841 513.751 60.2841H512.916V64.9886ZM527.802 62.6364C527.802 63.608 527.613 64.4276 527.235 65.0952C526.858 65.7599 526.348 66.2642 525.706 66.608C525.064 66.9489 524.348 67.1193 523.558 67.1193C522.762 67.1193 522.044 66.9474 521.402 66.6037C520.762 66.2571 520.254 65.7514 519.876 65.0866C519.501 64.419 519.314 63.6023 519.314 62.6364C519.314 61.6648 519.501 60.8466 519.876 60.1818C520.254 59.5142 520.762 59.0099 521.402 58.669C522.044 58.3253 522.762 58.1534 523.558 58.1534C524.348 58.1534 525.064 58.3253 525.706 58.669C526.348 59.0099 526.858 59.5142 527.235 60.1818C527.613 60.8466 527.802 61.6648 527.802 62.6364ZM525.365 62.6364C525.365 62.1136 525.295 61.6733 525.156 61.3153C525.02 60.9545 524.816 60.6818 524.547 60.4972C524.279 60.3097 523.95 60.2159 523.558 60.2159C523.166 60.2159 522.835 60.3097 522.565 60.4972C522.298 60.6818 522.095 60.9545 521.956 61.3153C521.819 61.6733 521.751 62.1136 521.751 62.6364C521.751 63.1591 521.819 63.6009 521.956 63.9616C522.095 64.3196 522.298 64.5923 522.565 64.7798C522.835 64.9645 523.166 65.0568 523.558 65.0568C523.95 65.0568 524.279 64.9645 524.547 64.7798C524.816 64.5923 525.02 64.3196 525.156 63.9616C525.295 63.6009 525.365 63.1591 525.365 62.6364ZM532.256 67H528.898V58.2727H532.222C533.12 58.2727 533.896 58.4474 534.549 58.7969C535.205 59.1435 535.711 59.6435 536.066 60.2969C536.424 60.9474 536.603 61.7273 536.603 62.6364C536.603 63.5455 536.425 64.3267 536.07 64.9801C535.715 65.6307 535.212 66.1307 534.562 66.4801C533.911 66.8267 533.143 67 532.256 67ZM531.268 64.9886H532.171C532.603 64.9886 532.971 64.919 533.275 64.7798C533.582 64.6406 533.815 64.4006 533.974 64.0597C534.136 63.7187 534.217 63.2443 534.217 62.6364C534.217 62.0284 534.134 61.554 533.969 61.2131C533.808 60.8722 533.569 60.6321 533.254 60.4929C532.941 60.3537 532.558 60.2841 532.103 60.2841H531.268V64.9886ZM543.367 61.1534C543.33 61.0028 543.272 60.8707 543.192 60.7571C543.113 60.6406 543.013 60.5426 542.894 60.4631C542.777 60.3807 542.641 60.3196 542.485 60.2798C542.331 60.2372 542.162 60.2159 541.978 60.2159C541.58 60.2159 541.24 60.3111 540.959 60.5014C540.681 60.6918 540.468 60.9659 540.32 61.3239C540.175 61.6818 540.103 62.1136 540.103 62.6193C540.103 63.1307 540.172 63.5682 540.311 63.9318C540.451 64.2955 540.658 64.5739 540.934 64.767C541.209 64.9602 541.551 65.0568 541.961 65.0568C542.321 65.0568 542.621 65.0043 542.86 64.8991C543.101 64.794 543.282 64.6449 543.401 64.4517C543.52 64.2585 543.58 64.0312 543.58 63.7699L543.989 63.8125H541.995V62.125H545.864V63.3352C545.864 64.1307 545.695 64.8111 545.357 65.3764C545.022 65.9389 544.559 66.3707 543.968 66.6719C543.38 66.9702 542.705 67.1193 541.944 67.1193C541.094 67.1193 540.348 66.9389 539.706 66.5781C539.064 66.2173 538.563 65.7031 538.202 65.0355C537.844 64.3679 537.665 63.5739 537.665 62.6534C537.665 61.9318 537.775 61.2926 537.993 60.7358C538.215 60.179 538.522 59.7088 538.914 59.3253C539.306 58.9389 539.759 58.6477 540.273 58.4517C540.787 58.2528 541.338 58.1534 541.926 58.1534C542.444 58.1534 542.924 58.2273 543.367 58.375C543.813 58.5199 544.206 58.7273 544.547 58.9972C544.891 59.2642 545.168 59.581 545.378 59.9474C545.588 60.3139 545.716 60.7159 545.762 61.1534H543.367ZM546.969 67V58.2727H553.259V60.1818H549.338V61.6818H552.935V63.5909H549.338V65.0909H553.241V67H546.969Z"
     fill="black"
     id="path6" />
  <defs
     id="defs7">
    <linearGradient
       id="paint0_linear_2011_8"
       x1="300"
       y1="0"
       x2="300"
       y2="400"
       gradientUnits="userSpaceOnUse">
      <stop
         stop-color="white"
         id="stop6" />
      <stop
         offset="1"
         stop-color="#00C147"
         id="stop7" />
    </linearGradient>
  </defs>
</svg>
