<?xml version="1.0" encoding="UTF-8" standalone="no"?>
<!-- Creator: CorelDRAW -->

<svg
   xml:space="preserve"
   width="193.58325mm"
   height="42.165092mm"
   style="clip-rule:evenodd;fill-rule:evenodd;image-rendering:optimizeQuality;shape-rendering:geometricPrecision;text-rendering:geometricPrecision"
   viewBox="0 0 193.58325 42.165092"
   id="svg2"
   version="1.1"
   xmlns="http://www.w3.org/2000/svg"
   xmlns:svg="http://www.w3.org/2000/svg"
   xmlns:rdf="http://www.w3.org/1999/02/22-rdf-syntax-ns#"
   xmlns:cc="http://creativecommons.org/ns#"
   xmlns:dc="http://purl.org/dc/elements/1.1/"><metadata
   id="metadata28"><rdf:RDF><cc:Work
       rdf:about=""><dc:format>image/svg+xml</dc:format><dc:type
         rdf:resource="http://purl.org/dc/dcmitype/StillImage" /></cc:Work></rdf:RDF></metadata>
 <defs
   id="defs4">
  <style
   type="text/css"
   id="style6">
   
    .fil0 {fill:#FFCC00}
    .fil1 {fill:#003882}
   
  </style>
 
  <metadata
   id="CorelCorpID_0Corel-Layer" />
  
 
   
   
  
    
    
   
    
    
   
     
     
    
     
     
     
     
    </defs>
 <rect
   style="fill:#f9f9f9"
   x="0"
   height="42.164902"
   width="78.583298"
   y="0"
   class="fil0"
   id="_131743536" /><polygon
   id="_133179360"
   class="fil1"
   points="47.9167,11.4997 47.9167,30.6655 72.8333,30.6655 72.8333,36.4152 42.1667,36.4152 42.1667,5.75 72.8333,5.75 72.8333,11.4997 "
   style="fill:#800000"
   transform="translate(0,1.18344e-5)" /><polygon
   id="_133867968"
   class="fil1"
   points="18.2083,11.4997 5.75,11.4997 5.75,5.75 18.2083,5.75 23.9583,5.75 36.4167,5.75 36.4167,11.4997 23.9583,11.4997 23.9583,36.4152 18.2083,36.4152 "
   style="fill:#800000"
   transform="translate(0,1.18344e-5)" /><rect
   style="fill:#800000;fill-opacity:1;stroke-width:0.87149"
   height="42.1646"
   width="114.99956"
   y="0.00049330539"
   x="78.583702"
   class="fil1"
   id="_133329728" /><path
   id="_133133936"
   style="fill:#f9f9f9"
   class="fil0"
   d="m 157.16726,6.0126118 v 0.08888 5.6606372 6.708117 5.74952 12.457638 h 5.75003 V 24.219769 h 24.91631 v -5.74952 H 162.91729 V 11.762132 H 187.8336 V 6.0126118 h -24.91631 z" />
<path
   id="path1"
   class="fil0"
   d="m 84.3333,6.0126118 h 5.75 19.1666 5.75 v 5.7497002 6.708 5.7497 h -5.75 -19.1666 v 12.4577 h -5.75 v -12.4577 -5.7497 -6.708 z m 24.9166,5.7497002 H 90.0833 v 6.708 h 19.1666 z"
   style="fill:#f9f9f9" /><path
   id="path2"
   style="fill:#f9f9f9;fill-opacity:1"
   class="fil1"
   d="m 120.75066,6.0126118 v 5.7500372 18.691882 6.223393 l 9.73687,-4.033345 4.14342,-1.716175 11.03653,-4.571297 2.30374,-0.954464 3.44578,-1.427303 V 17.752464 11.762649 6.0126118 Z m 5.75004,5.7500372 h 19.16678 v 8.371065 l -17.38033,7.199044 -1.78645,0.740007 z" /></svg>
